<?xml version="1.0" standalone="no"?>
<!DOCTYPE svg PUBLIC "-//W3C//DTD SVG 20010904//EN"
 "http://www.w3.org/TR/2001/REC-SVG-20010904/DTD/svg10.dtd">
<svg version="1.0" xmlns="http://www.w3.org/2000/svg"
 width="1236.000000pt" height="202.000000pt" viewBox="0 0 1236.000000 202.000000"
 preserveAspectRatio="xMidYMid meet">

<g transform="translate(0.000000,202.000000) scale(0.100000,-0.100000)"
fill="#000000" stroke="none">
<path d="M6600 1910 c-41 -16 -126 -41 -189 -55 -63 -14 -117 -28 -120 -31
-10 -10 -7 -92 4 -103 6 -6 37 -13 70 -17 36 -4 65 -13 73 -22 9 -12 12 -165
12 -688 0 -525 -3 -674 -12 -681 -7 -6 -37 -16 -67 -23 -70 -17 -95 -41 -88
-87 3 -19 11 -40 16 -47 8 -10 81 -13 303 -12 l293 1 3 49 c4 58 -13 81 -66
91 -60 11 -89 31 -96 66 -3 17 -6 166 -6 330 l0 299 61 45 c66 49 108 61 172
51 90 -15 139 -77 157 -203 10 -74 11 -389 1 -493 l-6 -65 -68 -25 c-38 -14
-73 -33 -79 -43 -12 -22 -3 -81 15 -94 7 -6 133 -9 297 -9 l285 1 3 52 c4 62
-2 68 -88 96 -63 21 -65 23 -72 62 -4 22 -11 173 -17 335 -11 305 -19 368 -61
450 -51 100 -126 148 -246 157 -86 7 -183 -19 -282 -73 -34 -19 -67 -32 -72
-29 -6 4 -10 56 -10 123 1 129 17 477 25 532 6 39 -15 74 -50 84 -11 3 -54 -8
-95 -24z"/>
<path d="M1115 1863 c-27 -1 -268 -7 -535 -13 -533 -11 -510 -8 -510 -71 0
-47 11 -59 69 -75 97 -27 108 -33 115 -66 3 -17 6 -315 6 -662 0 -703 3 -669
-68 -682 -97 -16 -109 -22 -116 -57 -3 -18 -1 -48 5 -65 l11 -32 323 0 323 0
4 38 c9 69 -2 85 -68 105 -105 33 -100 28 -107 98 -4 34 -7 165 -7 290 l0 229
170 0 c215 0 219 -2 252 -102 28 -84 49 -99 115 -82 l38 9 8 80 c12 122 5 441
-11 457 -7 7 -35 12 -63 13 -57 0 -63 -7 -99 -107 -27 -74 -40 -78 -247 -78
l-164 0 3 279 c2 154 7 283 11 288 5 4 111 8 237 8 l228 0 39 -31 c24 -20 51
-58 75 -107 31 -63 42 -76 67 -82 35 -8 101 20 101 42 0 8 -14 78 -30 156 -17
78 -33 156 -37 172 -8 43 -21 55 -57 53 -17 -1 -53 -3 -81 -5z"/>
<path d="M7699 1843 c-18 -21 -22 -86 -7 -106 9 -13 40 -23 92 -32 42 -7 84
-19 92 -25 18 -15 18 -168 4 -735 -11 -432 -20 -557 -44 -603 -16 -31 -44 -41
-154 -57 -59 -9 -79 -56 -50 -120 l11 -25 319 0 319 0 -3 62 c-3 73 -11 79
-118 98 -36 6 -68 14 -72 16 -5 3 -8 85 -8 182 0 186 27 882 34 889 8 8 25
-32 245 -589 120 -304 228 -574 240 -599 22 -48 41 -60 84 -52 63 12 72 32
425 878 144 346 159 379 170 383 13 4 25 -358 26 -772 l1 -320 -50 -14 c-27
-7 -61 -17 -75 -20 -40 -12 -56 -51 -42 -101 l13 -41 323 0 c358 0 336 -4 336
66 0 44 -37 84 -78 84 -42 0 -91 19 -102 40 -5 9 -14 57 -19 106 -12 105 -31
720 -31 1010 0 235 -1 231 94 259 64 19 76 31 83 83 9 64 6 64 -291 70 l-263
5 -17 -64 c-48 -168 -412 -1079 -446 -1113 -13 -13 10 -67 -352 844 -66 168
-124 309 -128 313 -4 5 -130 9 -279 11 -209 1 -274 -1 -282 -11z"/>
<path d="M1630 1788 c-83 -57 -103 -139 -51 -219 47 -75 118 -97 195 -59 109
53 122 202 25 271 -48 34 -124 37 -169 7z"/>
<path d="M3700 1504 c0 -43 -134 -205 -244 -293 -25 -21 -28 -27 -23 -68 2
-25 10 -50 16 -56 6 -6 37 -13 69 -15 l59 -4 7 -337 c8 -388 12 -412 84 -492
25 -28 68 -62 96 -77 45 -23 63 -26 146 -27 89 0 100 2 170 36 76 36 140 82
140 101 0 20 -33 79 -50 88 -12 6 -35 2 -76 -15 -102 -42 -165 -30 -214 43
l-25 35 -3 324 -3 323 114 0 c165 0 202 7 217 39 19 42 25 127 9 137 -7 4 -86
10 -174 14 l-160 5 -5 112 c-3 61 -7 113 -10 116 -19 16 -55 27 -94 27 -35 0
-46 -4 -46 -16z"/>
<path d="M2737 1275 c-32 -13 -82 -38 -112 -55 -30 -17 -55 -30 -56 -28 0 2
-2 18 -5 37 -5 43 -20 61 -50 61 -27 0 -315 -57 -360 -71 -36 -11 -48 -46 -35
-95 6 -25 15 -30 58 -40 63 -14 69 -18 90 -57 14 -28 16 -75 17 -366 0 -379 7
-351 -90 -371 -35 -7 -59 -19 -69 -33 -17 -25 -20 -70 -5 -98 10 -18 23 -19
283 -18 150 1 283 4 297 8 20 5 26 14 28 45 5 56 -16 79 -87 99 -34 10 -64 24
-69 34 -5 10 -12 158 -16 328 l-7 311 33 31 c139 131 308 95 355 -77 14 -54
18 -107 18 -310 0 -135 -3 -257 -8 -272 -6 -23 -17 -30 -65 -44 -31 -9 -65
-23 -74 -32 -21 -17 -23 -60 -6 -97 l11 -25 287 0 288 0 6 22 c9 34 7 64 -5
91 -8 18 -24 27 -65 36 -96 22 -91 4 -103 346 -6 165 -15 329 -21 365 -14 84
-71 202 -115 236 -89 68 -238 85 -348 39z"/>
<path d="M4715 1290 c-87 -9 -138 -28 -214 -79 -108 -74 -192 -201 -225 -341
-25 -104 -21 -253 9 -348 63 -200 231 -349 433 -384 125 -21 258 13 372 97 91
67 136 168 92 208 -25 23 -34 22 -89 -13 -104 -66 -260 -83 -361 -40 -97 42
-178 157 -198 280 l-7 40 89 1 c49 1 200 4 336 7 212 6 250 9 264 24 24 24 29
103 10 192 -53 257 -234 383 -511 356z m113 -179 c63 -32 117 -106 136 -183
l6 -28 -215 0 c-210 0 -215 0 -215 20 0 49 81 168 131 193 45 22 111 21 157
-2z"/>
<path d="M5765 1291 c-265 -35 -435 -264 -435 -585 0 -169 42 -282 147 -396
99 -107 178 -150 314 -171 91 -14 189 1 273 40 129 62 227 183 198 247 -7 13
-19 27 -27 30 -9 4 -52 -12 -98 -35 -241 -120 -435 -51 -518 185 -30 85 -30
276 0 354 27 71 70 123 124 149 89 43 145 24 240 -82 72 -80 114 -104 166 -92
49 11 80 53 97 135 l15 73 -31 32 c-88 91 -284 139 -465 116z"/>
<path d="M10340 1290 c-75 -13 -157 -49 -235 -101 -128 -86 -198 -184 -181
-253 12 -48 100 -85 169 -72 57 11 76 35 98 121 11 44 30 90 42 103 50 53 153
51 197 -5 19 -24 20 -38 18 -151 l-3 -124 -110 -39 c-141 -49 -279 -117 -330
-162 -80 -69 -112 -184 -81 -290 33 -114 127 -177 272 -185 79 -4 87 -3 158
31 41 19 92 47 112 61 l38 25 48 -45 c87 -81 148 -92 244 -44 77 38 114 77
121 127 6 44 -17 79 -46 69 -91 -30 -101 -31 -123 -9 -21 21 -21 31 -27 385
l-6 364 -32 65 c-34 68 -66 99 -123 117 -49 16 -167 22 -220 12z m119 -821 c1
-53 -1 -58 -32 -82 -18 -14 -52 -30 -75 -37 -114 -30 -200 61 -140 149 28 42
65 65 161 100 l72 27 7 -51 c3 -27 6 -75 7 -106z"/>
<path d="M11569 1276 c-32 -12 -82 -37 -113 -54 -31 -18 -58 -32 -61 -32 -3 0
-5 14 -5 31 0 46 -16 69 -49 69 -43 0 -332 -59 -368 -75 -30 -13 -33 -19 -33
-59 0 -48 10 -60 55 -70 115 -26 115 -26 115 -393 0 -164 -3 -315 -7 -336 -6
-42 -33 -60 -105 -72 -43 -7 -58 -27 -58 -79 0 -70 -16 -66 280 -66 147 0 282
3 299 6 36 7 45 30 33 84 -7 33 -12 36 -82 60 l-75 25 -6 90 c-4 50 -7 197 -8
327 l-1 238 38 35 c53 49 96 67 162 67 90 0 144 -38 176 -122 14 -37 18 -92
22 -313 2 -147 1 -279 -2 -292 -7 -28 -43 -49 -98 -59 -43 -8 -58 -29 -58 -80
0 -70 -19 -66 305 -66 l293 0 6 30 c7 36 -2 86 -18 99 -6 5 -38 16 -70 25 -32
8 -63 19 -68 24 -5 5 -13 141 -19 303 -5 162 -14 321 -19 354 -25 156 -77 240
-179 293 -57 28 -73 32 -145 32 -61 0 -95 -6 -137 -24z"/>
<path d="M1616 1256 c-186 -36 -196 -42 -196 -107 0 -44 6 -49 80 -69 92 -25
91 -22 88 -422 -2 -185 -6 -339 -9 -342 -3 -4 -37 -15 -74 -25 -75 -21 -85
-30 -85 -82 0 -72 -9 -70 312 -67 210 2 290 6 299 15 9 9 10 25 3 60 l-9 48
-72 23 c-39 13 -75 31 -80 40 -4 9 -8 222 -9 472 -1 250 -4 463 -9 473 -10 23
-38 21 -239 -17z"/>
</g>
</svg>
