<?xml version="1.0" standalone="no"?>
<!DOCTYPE svg PUBLIC "-//W3C//DTD SVG 20010904//EN"
 "http://www.w3.org/TR/2001/REC-SVG-20010904/DTD/svg10.dtd">
<svg version="1.0" xmlns="http://www.w3.org/2000/svg"
 width="1835.000000pt" height="2000.000000pt" viewBox="0 0 1835.000000 2000.000000"
 preserveAspectRatio="xMidYMid meet">

<g transform="translate(0.000000,2000.000000) scale(0.100000,-0.100000)"
fill="#000000" stroke="none">
<path d="M9073 15983 c-55 -92 -178 -303 -273 -468 -95 -165 -381 -660 -635
-1100 -254 -440 -470 -815 -479 -833 l-17 -32 588 0 588 0 64 113 c35 61 109
188 164 281 l99 169 38 -60 c21 -32 123 -207 228 -389 903 -1568 1826 -3161
1835 -3171 9 -9 81 107 305 494 l292 505 -592 1027 c-1596 2768 -2081 3607
-2093 3619 -10 12 -30 -15 -112 -155z"/>
<path d="M3850 13086 c0 -12 1445 -2522 1484 -2578 11 -15 15 -16 24 -6 10 13
534 920 560 971 17 33 13 40 -153 327 -100 171 -145 254 -145 265 0 3 943 5
2095 5 1152 0 2095 3 2095 6 0 12 -88 170 -270 484 -97 168 -205 356 -239 418
l-63 112 -2694 0 c-1482 0 -2694 -2 -2694 -4z"/>
<path d="M11542 13008 c40 -75 221 -389 460 -795 l90 -153 319 0 c175 0 319
-3 319 -7 0 -11 23 30 -977 -1703 -841 -1458 -1069 -1854 -1102 -1917 l-12
-23 588 0 588 0 394 683 c1870 3242 2284 3962 2288 3978 5 19 -30 19 -1496 19
l-1502 0 43 -82z"/>
<path d="M6517 11558 c-279 -480 -2622 -4538 -2641 -4575 -9 -18 -16 -37 -16
-43 0 -7 458 -10 1495 -10 822 0 1495 2 1495 5 0 5 -139 248 -439 768 l-143
247 -329 0 -328 0 106 183 c266 459 1122 1945 1528 2652 246 429 451 784 456
789 5 6 9 14 9 18 0 4 -263 8 -584 8 l-584 0 -25 -42z"/>
<path d="M12803 9202 c-105 -180 -236 -407 -292 -505 l-102 -178 37 -67 c21
-37 77 -134 124 -217 48 -82 103 -180 124 -217 l37 -68 -2101 0 -2100 0 12
-29 c7 -16 137 -246 288 -510 l275 -481 2698 0 2699 0 -20 33 c-11 17 -115
199 -232 402 -619 1078 -1198 2078 -1235 2132 l-21 32 -191 -327z"/>
<path d="M7052 9498 c-17 -22 -553 -950 -562 -974 -8 -19 100 -210 672 -1201
374 -648 884 -1531 1133 -1963 530 -920 863 -1492 874 -1503 12 -12 15 -6 567
953 273 476 597 1038 719 1250 l222 385 -571 3 c-314 1 -580 0 -591 -3 -14 -4
-70 -93 -175 -276 -85 -149 -159 -272 -164 -273 -9 -1 -341 570 -1538 2642
-310 534 -565 972 -569 972 -4 0 -11 -6 -17 -12z"/>
</g>
</svg>
